<svg width="297" height="297" viewBox="0 0 297 297" fill="none" xmlns="http://www.w3.org/2000/svg">
<path opacity="0.5" d="M292.04 148.161C292.04 227.672 227.588 292.125 148.076 292.125C68.5653 292.125 4.11279 227.672 4.11279 148.161C4.11279 68.65 68.5653 4.19751 148.076 4.19751C227.588 4.19751 292.04 68.65 292.04 148.161Z" fill="#DEDEDE"/>
<path d="M110.652 85.8946C107.369 82.6115 102.916 80.7671 98.2734 80.7671C93.6304 80.7671 89.1776 82.6115 85.8945 85.8946C82.6114 89.1777 80.767 93.6305 80.767 98.2735C80.767 102.916 82.6114 107.369 85.8945 110.652L123.031 147.789L85.8945 184.926C82.6114 188.209 80.767 192.662 80.767 197.305C80.767 201.948 82.6114 206.4 85.8945 209.684C89.1776 212.967 93.6304 214.811 98.2734 214.811C102.916 214.811 107.369 212.967 110.652 209.684L147.789 172.547L184.926 209.684C188.209 212.967 192.662 214.811 197.305 214.811C201.948 214.811 206.4 212.967 209.683 209.684C212.966 206.4 214.811 201.948 214.811 197.305C214.811 192.662 212.966 188.209 209.683 184.926L172.547 147.789L209.683 110.652C212.966 107.369 214.811 102.916 214.811 98.2735C214.811 93.6305 212.966 89.1777 209.683 85.8946C206.4 82.6115 201.948 80.7671 197.305 80.7671C192.662 80.7671 188.209 82.6115 184.926 85.8946L147.789 123.031L110.652 85.8946Z" fill="#F13434" fill-opacity="0.9"/>
</svg>
