<svg width="48" height="48" viewBox="0 0 48 48" fill="none" xmlns="http://www.w3.org/2000/svg">
<g clip-path="url(#clip0_68_2101)">
<path d="M5.62667 30.9333L3.09333 41.8667C3.00594 42.2663 3.00894 42.6805 3.1021 43.0789C3.19527 43.4772 3.37625 43.8498 3.63182 44.1692C3.88739 44.4887 4.2111 44.747 4.5793 44.9254C4.9475 45.1037 5.35089 45.1975 5.76 45.2C5.95056 45.2206 6.14278 45.2206 6.33333 45.2L17.3333 42.6667L38.4533 21.6267L26.6667 9.86667L5.62667 30.9333Z" fill="#FAFAFA"/>
<path d="M5.62667 30.9333L3.09333 41.8667C3.00594 42.2663 3.00894 42.6805 3.1021 43.0789C3.19527 43.4772 3.37625 43.8498 3.63182 44.1692C3.88739 44.4887 4.2111 44.747 4.5793 44.9254C4.9475 45.1037 5.35089 45.1975 5.76 45.2C5.95056 45.2206 6.14278 45.2206 6.33333 45.2L17.3333 42.6667L38.4533 21.6267L26.6667 9.86667L5.62667 30.9333Z" fill="#FAFAFA"/>
<path d="M45.0933 11.0933L37.2267 3.22667C36.7095 2.71209 36.0096 2.42322 35.28 2.42322C34.5504 2.42322 33.8505 2.71209 33.3333 3.22667L28.96 7.6L40.7333 19.3733L45.1067 15C45.3626 14.7428 45.5653 14.4376 45.7032 14.102C45.841 13.7663 45.9113 13.4068 45.9101 13.0439C45.9089 12.681 45.8361 12.322 45.6959 11.9873C45.5558 11.6526 45.351 11.3488 45.0933 11.0933Z" fill="#FAFAFA"/>
<path d="M45.0933 11.0933L37.2267 3.22667C36.7095 2.71209 36.0096 2.42322 35.28 2.42322C34.5504 2.42322 33.8505 2.71209 33.3333 3.22667L28.96 7.6L40.7333 19.3733L45.1067 15C45.3626 14.7428 45.5653 14.4376 45.7032 14.102C45.841 13.7663 45.9113 13.4068 45.9101 13.0439C45.9089 12.681 45.8361 12.322 45.6959 11.9873C45.5558 11.6526 45.351 11.3488 45.0933 11.0933Z" fill="#FAFAFA"/>
</g>
<defs>
<clipPath id="clip0_68_2101">
<rect width="48" height="48" fill="white"/>
</clipPath>
</defs>
</svg>
